<svg width="19" height="19" viewBox="0 0 19 19" fill="none" xmlns="http://www.w3.org/2000/svg">
<path d="M0.650146 8.86632C0.650146 7.97162 0.650146 7.52427 0.768941 7.11478C0.874145 6.75214 1.04686 6.41262 1.27802 6.11406C1.53904 5.77692 1.90061 5.51351 2.62376 4.98668L7.34353 1.54825C8.02061 1.05499 8.35914 0.808359 8.72941 0.713088C9.05633 0.628967 9.39924 0.628967 9.72617 0.713088C10.0964 0.808359 10.435 1.05499 11.112 1.54825L15.8318 4.98668C16.555 5.51351 16.9165 5.77692 17.1776 6.11406C17.4087 6.41262 17.5814 6.75214 17.6866 7.11478C17.8054 7.52427 17.8054 7.97162 17.8054 8.86632V14.9755C17.8054 16.0956 17.8054 16.6557 17.5874 17.0835C17.3957 17.4598 17.0897 17.7658 16.7134 17.9576C16.2856 18.1755 15.7255 18.1755 14.6054 18.1755H3.85015C2.73004 18.1755 2.16999 18.1755 1.74217 17.9576C1.36584 17.7658 1.05988 17.4598 0.868133 17.0835C0.650146 16.6557 0.650146 16.0956 0.650146 14.9755V8.86632Z" stroke="#9759C4" stroke-width="1.3" stroke-linejoin="round"/>
<path d="M6.52832 14.1755H11.9283" stroke="#9759C4" stroke-width="1.3" stroke-linecap="round" stroke-linejoin="round"/>
<circle cx="9.22778" cy="9.17554" r="2" stroke="#9759C4" stroke-width="1.3" stroke-linecap="round" stroke-linejoin="round"/>
</svg>
