<svg width="24" height="24" viewBox="0 0 24 24" fill="none" xmlns="http://www.w3.org/2000/svg">
<path d="M3.42236 11.6908C3.42236 10.7961 3.42236 10.3487 3.54116 9.93924C3.64636 9.5766 3.81908 9.23709 4.05024 8.93852C4.31126 8.60139 4.67283 8.33797 5.39598 7.81115L10.1157 4.37271C10.7928 3.87945 11.1314 3.63282 11.5016 3.53755C11.8286 3.45343 12.1715 3.45343 12.4984 3.53755C12.8686 3.63282 13.2072 3.87945 13.8843 4.37271L18.604 7.81115C19.3272 8.33797 19.6887 8.60139 19.9498 8.93852C20.1809 9.23709 20.3536 9.5766 20.4588 9.93924C20.5776 10.3487 20.5776 10.7961 20.5776 11.6908V17.8C20.5776 18.9201 20.5776 19.4802 20.3597 19.908C20.1679 20.2843 19.8619 20.5903 19.4856 20.782C19.0578 21 18.4977 21 17.3776 21H6.62236C5.50226 21 4.94221 21 4.51438 20.782C4.13806 20.5903 3.8321 20.2843 3.64035 19.908C3.42236 19.4802 3.42236 18.9201 3.42236 17.8V11.6908Z" stroke="#717171" stroke-width="1.3" stroke-linejoin="round"/>
<path d="M9.30078 17H14.7008" stroke="#717171" stroke-width="1.3" stroke-linecap="round" stroke-linejoin="round"/>
<circle cx="12" cy="12" r="2" stroke="#717171" stroke-width="1.3" stroke-linecap="round" stroke-linejoin="round"/>
</svg>
