<svg width="22" height="20" viewBox="0 0 22 20" fill="none" xmlns="http://www.w3.org/2000/svg">
<path d="M13.8017 2.96242C12.361 1.54462 10.4207 0.75 8.39943 0.75C6.37812 0.75 4.43782 1.54462 2.99715 2.96242V2.96242C1.86294 4.09216 1.11249 5.5498 0.851873 7.1293C0.591255 8.7088 0.833666 10.3303 1.54482 11.7645L1.20375 14.5811C1.18563 14.7169 1.19905 14.855 1.24296 14.9847C1.28688 15.1145 1.36009 15.2323 1.45693 15.3292C1.55378 15.426 1.67166 15.4992 1.80139 15.5432C1.93112 15.5871 2.06921 15.6005 2.20497 15.5824L5.02163 15.2413C6.45585 15.9525 8.07733 16.1949 9.65683 15.9342C11.2363 15.6736 12.694 14.9232 13.8237 13.789V13.789C14.5368 13.0787 15.1023 12.2343 15.4874 11.3044C15.8726 10.3745 16.0698 9.37759 16.0678 8.37111C16.0657 7.36462 15.8644 6.3685 15.4755 5.4402C15.0866 4.5119 14.5177 3.66978 13.8017 2.96242V2.96242Z" stroke="#717171" stroke-width="1.5" stroke-linecap="round" stroke-linejoin="round"/>
<path d="M13.9004 2.99585C15.5523 3.22966 17.0803 4.00336 18.2465 5.19637V5.19637C19.3807 6.3261 20.1311 7.78375 20.3917 9.36325C20.6524 10.9427 20.41 12.5642 19.6988 13.9984L20.0399 16.8151C20.058 16.9508 20.0446 17.089 20.0007 17.2187C19.9568 17.3484 19.8835 17.4663 19.7867 17.5631C19.6898 17.66 19.572 17.7332 19.4422 17.7771C19.3125 17.821 19.1744 17.8344 19.0386 17.8163L16.222 17.4753C14.7878 18.1864 13.1663 18.4288 11.5868 18.1682C10.0073 17.9076 8.54966 17.1571 7.41992 16.0229" stroke="#717171" stroke-width="1.5" stroke-linecap="round" stroke-linejoin="round"/>
<circle cx="11.75" cy="8.75" r="0.75" fill="#717171" stroke="#717171" stroke-width="0.5"/>
<circle cx="8.75" cy="8.75" r="0.75" fill="#717171" stroke="#717171" stroke-width="0.5"/>
<circle cx="5.75" cy="8.75" r="0.75" fill="#717171" stroke="#717171" stroke-width="0.5"/>
</svg>
