<svg width="24" height="24" viewBox="0 0 24 24" fill="none" xmlns="http://www.w3.org/2000/svg">
<path d="M19.851 5.79672C19.6969 5.60122 19.4862 5.45796 19.2478 5.38642C19.0093 5.31488 18.7546 5.31854 18.5183 5.3969C18.095 5.51719 17.6518 5.55116 17.2152 5.49681C16.7785 5.44245 16.3572 5.30087 15.9763 5.08048C15.5954 4.86009 15.2627 4.56539 14.998 4.21389C14.7333 3.86238 14.5419 3.46125 14.4352 3.03432C14.3836 2.80593 14.2668 2.59741 14.0991 2.434C13.9314 2.27058 13.7199 2.15927 13.4902 2.11352C12.5025 1.96216 11.4975 1.96216 10.5097 2.11352C10.2785 2.16015 10.0659 2.27326 9.89803 2.43898C9.73015 2.6047 9.61431 2.81582 9.56471 3.04644C9.46221 3.48128 9.27173 3.89052 9.00501 4.24893C8.73829 4.60733 8.40098 4.90731 8.01389 5.13035C7.62865 5.35216 7.20279 5.49433 6.76157 5.54844C6.32035 5.60255 5.87276 5.5675 5.44534 5.44536C5.20828 5.37236 4.95452 5.37388 4.71835 5.44971C4.48217 5.52555 4.27497 5.67205 4.12472 5.86942C3.53949 6.62793 3.06995 7.46903 2.73141 8.36527C2.63375 8.60064 2.6128 8.86082 2.67153 9.10879C2.73026 9.35675 2.86568 9.57989 3.05853 9.74647C3.37516 10.0506 3.62708 10.4156 3.79916 10.8195C3.97124 11.2234 4.05995 11.6579 4.05995 12.0969C4.05995 12.536 3.97124 12.9705 3.79916 13.3744C3.62708 13.7783 3.37516 14.1433 3.05853 14.4474C2.87028 14.6146 2.7388 14.8363 2.68234 15.0816C2.62589 15.327 2.64727 15.5838 2.74352 15.8165C2.91787 16.2357 3.12446 16.6408 3.36143 17.028C3.59833 17.4507 3.86558 17.8556 4.16107 18.2396C4.31522 18.4351 4.52586 18.5784 4.76432 18.6499C5.00278 18.7215 5.2575 18.7178 5.49381 18.6394C5.91544 18.5167 6.35741 18.4799 6.79356 18.531C7.2297 18.5821 7.65116 18.7202 8.03298 18.9371C8.41481 19.154 8.74925 19.4453 9.01651 19.7937C9.28377 20.1422 9.47842 20.5407 9.58894 20.9657C9.64063 21.1941 9.7574 21.4026 9.92511 21.566C10.0928 21.7294 10.3043 21.8407 10.534 21.8865C11.5217 22.0378 12.5267 22.0378 13.5145 21.8865C13.7457 21.8399 13.9583 21.7267 14.1262 21.561C14.294 21.3953 14.4099 21.1842 14.4595 20.9536C14.5606 20.523 14.7481 20.1173 15.0105 19.7612C15.2729 19.4051 15.6048 19.1059 15.9861 18.8818C16.3713 18.66 16.7972 18.5178 17.2384 18.4637C17.6796 18.4096 18.1272 18.4446 18.5546 18.5668C18.7917 18.6398 19.0454 18.6382 19.2816 18.5624C19.5178 18.4866 19.725 18.3401 19.8752 18.1427C20.4543 17.4065 20.9236 16.5903 21.2685 15.7195C21.3662 15.4842 21.3872 15.224 21.3284 14.976C21.2697 14.7281 21.1343 14.5049 20.9414 14.3383C20.6248 14.0342 20.3729 13.6692 20.2008 13.2653C20.0287 12.8614 19.94 12.4269 19.94 11.9879C19.94 11.5488 20.0287 11.1143 20.2008 10.7104C20.3729 10.3065 20.6248 9.94156 20.9414 9.63742C21.1297 9.47024 21.2612 9.24856 21.3176 9.0032C21.3741 8.75784 21.3527 8.50099 21.2564 8.26834C21.085 7.82837 20.8784 7.40294 20.6385 6.99618C20.405 6.57806 20.1418 6.17721 19.851 5.79672V5.79672Z" stroke="#9759C4" stroke-width="1.3" stroke-linecap="round" stroke-linejoin="round"/>
<path d="M12.0122 14.6895C13.4977 14.6895 14.7019 13.4852 14.7019 11.9998C14.7019 10.5143 13.4977 9.31006 12.0122 9.31006C10.5267 9.31006 9.32251 10.5143 9.32251 11.9998C9.32251 13.4852 10.5267 14.6895 12.0122 14.6895Z" stroke="#9759C4" stroke-width="1.3" stroke-linecap="round" stroke-linejoin="round"/>
</svg>
