<svg width="80" height="80" viewBox="0 0 80 80" fill="none" xmlns="http://www.w3.org/2000/svg">
<circle cx="40" cy="40" r="40" fill="#FFC7E0"/>
<path d="M76.3274 56.7656C69.9862 70.4827 56.1045 80 40 80C23.8954 80 10.0137 70.4827 3.67249 56.7656H76.3274Z" fill="url(#paint0_linear_5157_439)"/>
<path d="M9.7463 66.168C7.68758 63.79 5.90455 61.1667 4.4469 58.3479C4.67313 58.3075 4.90605 58.2865 5.14389 58.2865H52.7555C54.932 58.2865 56.6963 60.0508 56.6963 62.2272C56.6963 64.4037 54.932 66.168 52.7555 66.168H9.7463Z" fill="url(#paint1_linear_5157_439)"/>
<rect width="32" height="3" transform="matrix(0.707107 -0.707107 -0.707107 -0.707107 15 30)" fill="#9759C4"/>
<ellipse cx="16" cy="3" rx="16" ry="3" transform="matrix(0.707107 -0.707107 -0.707107 -0.707107 17 32)" fill="#9759C4"/>
<ellipse cx="16" cy="3" rx="16" ry="3" transform="matrix(0.707107 -0.707107 -0.707107 -0.707107 15 30)" fill="#6F3599"/>
<path d="M20.552 18.7997L19.7859 18.0335C19.1052 17.3528 19.1052 16.2492 19.7859 15.5685L22.1174 13.2369C22.7981 12.5562 23.9018 12.5562 24.5825 13.2369L25.3486 14.003" stroke="white" stroke-width="1.74305" stroke-linecap="round"/>
<path d="M25.0768 31.9136L56.6841 31.9136L53.9677 61.0454C53.9211 61.5454 53.684 62.0083 53.2511 62.2629C51.9091 63.0521 48.3013 64.627 40.8804 64.627C33.4596 64.627 29.8518 63.0521 28.5097 62.2629C28.0768 62.0083 27.8398 61.5454 27.7931 61.0454L25.0768 31.9136Z" fill="#9759C4"/>
<path d="M50.4172 38.2488L48.8998 57.3301" stroke="white" stroke-width="1.74305" stroke-linecap="round"/>
<path d="M40.8804 39.135L40.8804 58.4331" stroke="white" stroke-width="1.74305" stroke-linecap="round"/>
<path d="M31.3535 38.2488L32.871 57.3301" stroke="white" stroke-width="1.74305" stroke-linecap="round"/>
<path d="M56.7027 31.8244C56.7027 33.4405 49.6232 34.7506 40.8902 34.7506C32.1572 34.7506 25.0778 33.4405 25.0778 31.8244C25.0778 30.2083 32.1572 28.8982 40.8902 28.8982C49.6232 28.8982 56.7027 30.2083 56.7027 31.8244Z" fill="#6F3599"/>
<path d="M46.3249 9.39298L47.5292 13.6463C47.658 14.1014 48.1739 14.3215 48.5916 14.0997L48.7847 13.9971C49.0273 13.8683 49.1789 13.6161 49.1789 13.3415L49.1787 8.95122C49.1787 8.49114 48.7644 8.14187 48.311 8.2196L46.9138 8.4591C46.479 8.53362 46.2048 8.96857 46.3249 9.39298Z" fill="#FF6A52"/>
<path d="M51.4239 14.9275L51.5066 15.0024C51.8183 15.2847 52.3019 15.2519 52.5727 14.9303L56.3007 10.5027C56.6438 10.0952 56.4587 9.4697 55.9492 9.31448L54.5979 8.90288C54.255 8.79843 53.8864 8.95395 53.722 9.27248L51.2625 14.0367C51.1081 14.3359 51.1743 14.7015 51.4239 14.9275Z" fill="#FF6A52"/>
<path d="M57.0208 14.2172L54.243 16.0387C53.9531 16.2287 53.8334 16.594 53.9544 16.9188L54.0173 17.0873C54.1605 17.4714 54.588 17.6667 54.9721 17.5235L58.1547 16.337C58.5859 16.1762 58.7684 15.6659 58.537 15.2681L58.0695 14.4647C57.8555 14.0969 57.3767 13.9839 57.0208 14.2172Z" fill="#FF6A52"/>
<defs>
<linearGradient id="paint0_linear_5157_439" x1="40" y1="56.7656" x2="40" y2="80" gradientUnits="userSpaceOnUse">
<stop stop-color="#F28DBA"/>
<stop offset="1" stop-color="#FFB9D8"/>
</linearGradient>
<linearGradient id="paint1_linear_5157_439" x1="50.7072" y1="60.2208" x2="-2.42521" y2="59.5051" gradientUnits="userSpaceOnUse">
<stop stop-color="#DD6A9D"/>
<stop offset="1" stop-color="#DD6A9D" stop-opacity="0"/>
</linearGradient>
</defs>
</svg>
