<svg width="200" height="200" viewBox="0 0 200 200" fill="none" xmlns="http://www.w3.org/2000/svg">
<rect x="45" y="40" width="77.5" height="127.5" rx="12.3823" transform="rotate(-4.48949 45 40)" fill="#6F3599"/>
<rect x="52.5" y="40" width="77.5" height="127.5" rx="12.3823" transform="rotate(-4.48949 52.5 40)" fill="#9759C4"/>
<rect x="55" y="42.5" width="70" height="117.5" rx="9.2867" transform="rotate(-4.48949 55 42.5)" fill="url(#paint0_linear_5077_6005)"/>
<path fill-rule="evenodd" clip-rule="evenodd" d="M61.6467 118.231L63.8749 146.61L121.537 40.3678C119.815 39.1217 117.657 38.4576 115.371 38.6371L85.3924 40.991L61.6467 118.231ZM74.3006 160.753C73.0599 160.85 71.8569 160.699 70.7408 160.341L128.744 90.3065L132.159 133.799L94.6702 159.154L74.3006 160.753Z" fill="url(#paint1_linear_5077_6005)"/>
<path d="M77.2146 40.2411L104.584 38.0921L104.838 41.3198C104.992 43.2862 103.523 45.0054 101.557 45.1598L81.3081 46.7497C79.3417 46.9041 77.6224 45.4352 77.468 43.4688L77.2146 40.2411Z" fill="#9759C4"/>
<rect x="77.5" y="67.5001" width="80" height="55" rx="6.19113" transform="rotate(5.97085 77.5 67.5001)" fill="#DD4C2D"/>
<rect x="82.5" y="67.5001" width="80" height="55" rx="6" transform="rotate(5.97085 82.5 67.5001)" fill="url(#paint2_linear_5077_6005)"/>
<rect x="82.5" y="110" width="62.5" height="2.5" rx="1.25" transform="rotate(6.36853 82.5 110)" fill="#FFC47D"/>
<rect x="82.5" y="110" width="32.5" height="2.5" rx="1.25" transform="rotate(6.36853 82.5 110)" fill="white"/>
<rect x="87.5" y="77.5" width="47.5" height="5" rx="2.5" transform="rotate(6.36853 87.5 77.5)" fill="white"/>
<rect x="87.5" y="85" width="25" height="5" rx="2.5" transform="rotate(6.36853 87.5 85)" fill="white"/>
<circle cx="88.2704" cy="96.6749" r="3.45" transform="rotate(6.92628 88.2704 96.6749)" fill="white" stroke="#FFC47D" stroke-width="0.6"/>
<circle cx="91.7448" cy="97.0969" r="3.45" transform="rotate(6.92628 91.7448 97.0969)" fill="white" stroke="#FFC47D" stroke-width="0.6"/>
<circle cx="95.2194" cy="97.519" r="3.45" transform="rotate(6.92628 95.2194 97.519)" fill="white" stroke="#FFC47D" stroke-width="0.6"/>
<g filter="url(#filter0_d_5077_6005)">
<rect x="137.5" y="65" width="32.5" height="32.5" rx="16.25" fill="#D33630"/>
<path d="M151.369 78.8293L158.4 85.94" stroke="white" stroke-width="2" stroke-linecap="round"/>
<path d="M158.44 78.869L151.329 85.9002" stroke="white" stroke-width="2" stroke-linecap="round"/>
</g>
<defs>
<filter id="filter0_d_5077_6005" x="125.192" y="60.0769" width="57.1154" height="57.1154" filterUnits="userSpaceOnUse" color-interpolation-filters="sRGB">
<feFlood flood-opacity="0" result="BackgroundImageFix"/>
<feColorMatrix in="SourceAlpha" type="matrix" values="0 0 0 0 0 0 0 0 0 0 0 0 0 0 0 0 0 0 127 0" result="hardAlpha"/>
<feMorphology radius="2.46154" operator="erode" in="SourceAlpha" result="effect1_dropShadow_5077_6005"/>
<feOffset dy="7.38462"/>
<feGaussianBlur stdDeviation="7.38462"/>
<feComposite in2="hardAlpha" operator="out"/>
<feColorMatrix type="matrix" values="0 0 0 0 0.145547 0 0 0 0 0.190332 0 0 0 0 0.0641193 0 0 0 0.3 0"/>
<feBlend mode="normal" in2="BackgroundImageFix" result="effect1_dropShadow_5077_6005"/>
<feBlend mode="normal" in="SourceGraphic" in2="effect1_dropShadow_5077_6005" result="shape"/>
</filter>
<linearGradient id="paint0_linear_5077_6005" x1="125" y1="42.5" x2="125" y2="133.711" gradientUnits="userSpaceOnUse">
<stop stop-color="#D3E4F2"/>
<stop offset="1" stop-color="#BBD9EF"/>
</linearGradient>
<linearGradient id="paint1_linear_5077_6005" x1="153.082" y1="49.2898" x2="55.678" y2="160.599" gradientUnits="userSpaceOnUse">
<stop stop-color="white" stop-opacity="0.5"/>
<stop offset="1" stop-color="white" stop-opacity="0"/>
</linearGradient>
<linearGradient id="paint2_linear_5077_6005" x1="122.5" y1="122.5" x2="122.5" y2="67.5001" gradientUnits="userSpaceOnUse">
<stop stop-color="#FFB850"/>
<stop offset="1" stop-color="#FF7557"/>
</linearGradient>
</defs>
</svg>
