<svg width="338" height="398" viewBox="0 0 338 398" fill="none" xmlns="http://www.w3.org/2000/svg">
<circle cx="168.721" cy="237.937" r="159.5" fill="white" fill-opacity="0.2" stroke="url(#paint0_linear_5129_6374)"/>
<g opacity="0.5">
<rect width="293.062" height="107.619" rx="15.7466" transform="matrix(0.984808 0.173648 -0.258819 0.965926 38.3428 83.4487)" fill="white"/>
<rect width="139.97" height="6.9985" rx="3.49925" transform="matrix(0.984808 0.173648 -0.258819 0.965926 47.5989 102.779)" fill="#D9D9D9"/>
<rect width="87.4813" height="6.9985" rx="3.49925" transform="matrix(0.984808 0.173648 -0.258819 0.965926 43.9763 116.299)" fill="#D9D9D9"/>
<rect width="44.9955" height="20.997" rx="10.4985" transform="matrix(0.984808 0.173648 -0.258819 0.965926 264.328 140.995)" fill="#D9D9D9"/>
<path d="M271.972 156.503L273.887 149.358L274.795 149.519L273.967 152.608L277.966 153.313L278.793 150.223L279.702 150.384L277.788 157.528L276.879 157.368L277.751 154.115L273.753 153.41L272.881 156.663L271.972 156.503ZM279.761 157.876L281.191 152.539L282.07 152.694L280.64 158.031L279.761 157.876ZM281.911 151.587C281.747 151.558 281.619 151.475 281.529 151.338C281.443 151.199 281.422 151.048 281.465 150.886C281.509 150.721 281.606 150.591 281.754 150.497C281.906 150.403 282.065 150.37 282.23 150.399C282.398 150.429 282.526 150.512 282.613 150.648C282.699 150.784 282.721 150.935 282.676 151.1C282.633 151.262 282.537 151.392 282.387 151.49C282.238 151.584 282.08 151.617 281.911 151.587ZM284.239 160.636C283.802 160.559 283.436 160.431 283.142 160.251C282.848 160.075 282.633 159.859 282.497 159.603C282.363 159.351 282.312 159.076 282.342 158.777L282.354 158.774L283.263 158.934L283.266 158.94C283.259 159.15 283.357 159.34 283.558 159.51C283.758 159.684 284.053 159.805 284.443 159.874C284.931 159.96 285.341 159.918 285.672 159.748C286.005 159.582 286.225 159.303 286.33 158.91L286.619 157.831L286.538 157.816C286.372 157.991 286.184 158.133 285.975 158.241C285.767 158.349 285.545 158.421 285.31 158.455C285.076 158.487 284.834 158.48 284.585 158.437C284.118 158.354 283.741 158.174 283.456 157.895C283.176 157.614 282.995 157.264 282.913 156.845C282.831 156.427 282.857 155.968 282.991 155.47L282.994 155.46C283.127 154.961 283.338 154.535 283.627 154.182C283.92 153.825 284.267 153.567 284.67 153.406C285.073 153.242 285.512 153.202 285.987 153.286C286.242 153.331 286.467 153.412 286.662 153.529C286.856 153.647 287.016 153.792 287.142 153.967C287.271 154.142 287.364 154.339 287.421 154.56L287.482 154.571L287.718 153.69L288.596 153.845L287.186 159.108C287.08 159.504 286.888 159.831 286.611 160.09C286.337 160.349 285.997 160.526 285.591 160.621C285.185 160.718 284.734 160.723 284.239 160.636ZM284.982 157.708C285.318 157.767 285.626 157.742 285.906 157.632C286.19 157.52 286.432 157.34 286.632 157.092C286.836 156.844 286.985 156.544 287.08 156.19L287.082 156.181C287.177 155.827 287.195 155.502 287.138 155.205C287.083 154.909 286.956 154.661 286.755 154.464C286.557 154.266 286.291 154.138 285.954 154.079C285.617 154.019 285.311 154.046 285.033 154.16C284.76 154.274 284.524 154.457 284.326 154.709C284.131 154.962 283.987 155.265 283.892 155.618L283.889 155.628C283.795 155.981 283.772 156.304 283.82 156.596C283.872 156.888 283.994 157.133 284.184 157.329C284.379 157.522 284.645 157.649 284.982 157.708ZM289.059 159.516L291.057 152.059L291.935 152.214L291.153 155.135L291.233 155.15C291.448 154.89 291.705 154.706 292.006 154.596C292.307 154.483 292.658 154.462 293.059 154.533C293.466 154.605 293.79 154.743 294.031 154.948C294.273 155.15 294.429 155.411 294.498 155.73C294.568 156.05 294.546 156.421 294.432 156.844L293.506 160.3L292.628 160.145L293.498 156.897C293.627 156.415 293.619 156.04 293.472 155.772C293.329 155.502 293.041 155.328 292.607 155.252C292.318 155.201 292.051 155.218 291.806 155.302C291.561 155.387 291.35 155.531 291.172 155.735C290.997 155.939 290.868 156.198 290.784 156.512L289.937 159.671L289.059 159.516Z" fill="white"/>
<path d="M49.6728 135.446C55.1444 136.411 58.4137 141.544 56.9757 146.911C55.5376 152.277 49.9369 155.845 44.4654 154.881C38.9937 153.916 35.7234 148.784 37.1613 143.417C38.5993 138.05 44.2011 134.481 49.6728 135.446Z" fill="#D9D9D9" stroke="white" stroke-width="0.874813"/>
<rect x="0.317552" y="0.498457" width="20.1207" height="20.1207" rx="10.0603" transform="matrix(0.984808 0.173648 -0.258819 0.965926 53.3658 135.593)" fill="#D9D9D9" stroke="white" stroke-width="0.874813"/>
<rect x="0.317552" y="0.498457" width="20.1207" height="20.1207" rx="10.0603" transform="matrix(0.984808 0.173648 -0.258819 0.965926 67.1502 138.024)" fill="#D9D9D9" stroke="white" stroke-width="0.874813"/>
<rect x="0.317552" y="0.498457" width="20.1207" height="20.1207" rx="10.0603" transform="matrix(0.984808 0.173648 -0.258819 0.965926 80.9344 140.454)" fill="#D9D9D9" stroke="white" stroke-width="0.874813"/>
<rect width="13.997" height="13.997" rx="3.49925" transform="matrix(0.984808 0.173648 -0.258819 0.965926 216.877 168.026)" fill="#D9D9D9"/>
<rect width="20.9955" height="3.49925" rx="1.74963" transform="matrix(0.984808 0.173648 -0.258819 0.965926 232.749 176.134)" fill="#D9D9D9"/>
<rect width="13.997" height="13.997" rx="3.49925" transform="matrix(0.984808 0.173648 -0.258819 0.965926 261.676 175.925)" fill="#D9D9D9"/>
<rect width="20.9955" height="3.49925" rx="1.74963" transform="matrix(0.984808 0.173648 -0.258819 0.965926 277.548 184.034)" fill="#D9D9D9"/>
<path d="M29.7114 169.536C30.0865 168.136 31.5478 167.205 32.9752 167.457L81.2204 175.964L79.8619 181.034L31.6167 172.527C30.1893 172.275 29.3362 170.936 29.7114 169.536Z" fill="#D9D9D9"/>
<rect width="51.6139" height="5.24888" transform="matrix(0.984808 0.173648 -0.258819 0.965926 82.9436 176.268)" fill="#D9D9D9"/>
<rect width="51.6139" height="5.24888" transform="matrix(0.984808 0.173648 -0.258819 0.965926 135.496 185.534)" fill="#F0F5FA"/>
<rect width="51.6139" height="5.24888" transform="matrix(0.984808 0.173648 -0.258819 0.965926 188.049 194.8)" fill="#F0F5FA"/>
<path d="M240.602 204.067L288.847 212.574C290.275 212.826 291.128 214.165 290.753 215.565C290.377 216.965 288.916 217.896 287.489 217.644L239.244 209.137L240.602 204.067Z" fill="#F0F5FA"/>
</g>
<rect width="338.149" height="124.089" rx="18.1692" transform="matrix(0.965926 -0.258819 0.0871557 0.996195 0 87.5195)" fill="white"/>
<rect width="161.504" height="6" rx="3" transform="matrix(0.965926 -0.258819 0.0871557 0.996195 17.3596 103.451)" fill="#2B3033"/>
<rect opacity="0.5" width="100.94" height="6" rx="3" transform="matrix(0.965926 -0.258819 0.0871557 0.996195 18.5864 117.472)" fill="#2B3033"/>
<rect width="52.2256" height="25.1504" rx="12.5752" transform="matrix(0.965926 -0.258819 0.0871557 0.996195 262.34 37.8086)" fill="#FF9C9C"/>
<path d="M276.579 51.4024L275.836 42.9003L276.864 42.6247L277.186 46.3013L281.71 45.0889L281.389 41.4124L282.417 41.1368L283.161 49.6389L282.132 49.9144L281.794 46.0434L277.269 47.2558L277.608 51.1268L276.579 51.4024ZM285.394 49.0404L284.839 42.6889L285.833 42.4226L286.388 48.7741L285.394 49.0404ZM285.234 41.3287C285.047 41.3787 284.88 41.3533 284.73 41.2526C284.585 41.1469 284.504 40.9978 284.487 40.8053C284.47 40.6089 284.522 40.4241 284.643 40.251C284.768 40.0767 284.924 39.9646 285.11 39.9146C285.301 39.8636 285.469 39.889 285.614 39.9907C285.759 40.0925 285.841 40.2416 285.858 40.438C285.875 40.6304 285.823 40.8152 285.702 40.9924C285.58 41.1655 285.425 41.2777 285.234 41.3287ZM291.229 49.7686C290.733 49.9012 290.295 49.9444 289.913 49.898C289.531 49.8556 289.218 49.7324 288.974 49.5284C288.734 49.3274 288.573 49.0611 288.489 48.7298L288.5 48.7208L289.528 48.4453L289.535 48.4496C289.609 48.675 289.786 48.8285 290.066 48.9102C290.346 48.9959 290.707 48.9796 291.149 48.8612C291.701 48.7132 292.12 48.4683 292.406 48.1264C292.696 47.7874 292.821 47.3842 292.78 46.9167L292.668 45.6323L292.576 45.6568C292.467 45.9232 292.322 46.165 292.143 46.382C291.963 46.599 291.755 46.7834 291.519 46.9351C291.282 47.0829 291.023 47.1946 290.741 47.2701C290.212 47.4119 289.741 47.4053 289.33 47.2501C288.923 47.09 288.594 46.8083 288.344 46.4048C288.094 46.0014 287.944 45.5031 287.892 44.91L287.891 44.8982C287.839 44.3051 287.898 43.7507 288.067 43.235C288.24 42.7143 288.509 42.2703 288.874 41.9031C289.239 41.5319 289.69 41.2743 290.227 41.1305C290.517 41.0529 290.787 41.0286 291.039 41.0575C291.291 41.0865 291.518 41.1624 291.72 41.2852C291.926 41.407 292.102 41.5709 292.248 41.7768L292.317 41.7585L292.225 40.7097L293.219 40.4433L293.767 46.7065C293.808 47.1778 293.732 47.6184 293.538 48.0282C293.348 48.437 293.055 48.7907 292.66 49.0895C292.266 49.3922 291.788 49.6185 291.229 49.7686ZM290.879 46.3046C291.26 46.2025 291.577 46.0249 291.832 45.7718C292.09 45.5137 292.277 45.2042 292.394 44.8433C292.514 44.4814 292.556 44.0903 292.519 43.67L292.518 43.6583C292.481 43.238 292.375 42.8847 292.197 42.5985C292.024 42.3112 291.792 42.1121 291.502 42.0009C291.215 41.8888 290.882 41.8837 290.501 41.9858C290.12 42.0878 289.804 42.2669 289.554 42.5229C289.307 42.7779 289.128 43.0874 289.015 43.4511C288.907 43.8139 288.871 44.2054 288.908 44.6257L288.909 44.6375C288.945 45.0578 289.046 45.4106 289.212 45.696C289.381 45.9803 289.605 46.1796 289.884 46.2938C290.166 46.403 290.498 46.4066 290.879 46.3046ZM295.917 46.2209L295.141 37.3476L296.135 37.0813L296.439 40.5575L296.53 40.533C296.657 40.1534 296.859 39.8319 297.136 39.5687C297.413 39.3016 297.778 39.1073 298.231 38.9859C298.692 38.8624 299.09 38.8501 299.426 38.949C299.762 39.044 300.029 39.2438 300.227 39.5485C300.425 39.8532 300.546 40.2569 300.59 40.7597L300.95 44.8723L299.956 45.1386L299.618 41.2735C299.568 40.7 299.413 40.3074 299.152 40.0957C298.896 39.8791 298.522 39.8366 298.03 39.9683C297.703 40.056 297.425 40.2047 297.198 40.4144C296.971 40.624 296.802 40.8802 296.692 41.183C296.586 41.4848 296.55 41.8223 296.582 42.1955L296.911 45.9545L295.917 46.2209Z" fill="white"/>
<path d="M32.351 137.94C38.5434 136.281 44.0165 140.113 44.5755 146.499C45.1343 152.886 40.5669 159.409 34.3744 161.068C28.1821 162.727 22.7095 158.894 22.1508 152.508C21.5923 146.122 26.1589 139.6 32.351 137.94Z" fill="#D7D6D9" stroke="white" stroke-width="1.0094"/>
<rect x="0.53149" y="0.372153" width="23.2162" height="23.2162" rx="11.6081" transform="matrix(0.965926 -0.258819 0.0871557 0.996195 36.193 136.531)" fill="#D7D6D9" stroke="white" stroke-width="1.0094"/>
<rect x="0.53149" y="0.372153" width="23.2162" height="23.2162" rx="11.6081" transform="matrix(0.965926 -0.258819 0.0871557 0.996195 51.7933 132.351)" fill="#D7D6D9" stroke="white" stroke-width="1.0094"/>
<rect x="0.53149" y="0.372153" width="23.2162" height="23.2162" rx="11.6081" transform="matrix(0.965926 -0.258819 0.0871557 0.996195 67.3931 128.171)" fill="#D7D6D9" stroke="white" stroke-width="1.0094"/>
<rect width="16.1504" height="16.1504" rx="4.0376" transform="matrix(0.965926 -0.258819 0.0871557 0.996195 222.786 90.5151)" fill="#D7D6D9"/>
<rect width="24.2256" height="4.0376" rx="2.0188" transform="matrix(0.965926 -0.258819 0.0871557 0.996195 242.813 91.3232)" fill="#D7D6D9"/>
<rect width="16.1504" height="16.1504" rx="4.0376" transform="matrix(0.965926 -0.258819 0.0871557 0.996195 273.486 76.9302)" fill="#D7D6D9"/>
<rect width="24.2256" height="4.0376" rx="2.0188" transform="matrix(0.965926 -0.258819 0.0871557 0.996195 293.514 77.7388)" fill="#D7D6D9"/>
<path d="M24.3901 183.811C24.2444 182.145 25.4358 180.444 27.0512 180.011L81.6515 165.381L82.1794 171.414L27.5791 186.044C25.9636 186.477 24.5359 185.477 24.3901 183.811Z" fill="#8CC848"/>
<rect width="59.5546" height="6.0564" transform="matrix(0.965926 -0.258819 0.0871557 0.996195 83.6016 164.858)" fill="#F0F5FA"/>
<rect width="26.2624" height="6.0564" transform="matrix(0.965926 -0.258819 0.0871557 0.996195 83.6016 164.858)" fill="#8CC848"/>
<rect width="59.5546" height="6.0564" transform="matrix(0.965926 -0.258819 0.0871557 0.996195 143.077 148.922)" fill="#F0F5FA"/>
<rect width="59.5546" height="6.0564" transform="matrix(0.965926 -0.258819 0.0871557 0.996195 202.552 132.985)" fill="#F0F5FA"/>
<path d="M262.027 117.049L316.628 102.419C318.243 101.986 319.671 102.986 319.817 104.652C319.962 106.318 318.771 108.019 317.155 108.452L262.555 123.082L262.027 117.049Z" fill="#F0F5FA"/>
<rect width="115" height="32" rx="16" transform="matrix(0.965926 -0.258819 0.0871557 0.996195 48.0488 262.642)" fill="#FFB850"/>
<path d="M66.7939 278.52L65.9342 268.693L67.2746 268.334L73.2021 274.6L72.1447 274.333L72.8909 274.133L72.2665 266.996L73.7125 266.609L74.5723 276.435L73.2319 276.794L67.2984 270.537L68.3623 270.802L67.6096 271.004L68.2334 278.134L66.7939 278.52ZM79.5383 275.251C78.8384 275.439 78.2196 275.446 77.6819 275.275C77.1487 275.101 76.7206 274.765 76.3976 274.267C76.0743 273.763 75.878 273.116 75.8089 272.326L75.8077 272.313C75.7382 271.518 75.8149 270.799 76.0378 270.153C76.265 269.507 76.6183 268.962 77.0975 268.517C77.5811 268.072 78.1707 267.756 78.8662 267.569C79.5661 267.382 80.1827 267.375 80.716 267.548C81.2488 267.716 81.6769 268.052 82.0003 268.556C82.3277 269.053 82.5261 269.7 82.5956 270.494L82.5968 270.508C82.6659 271.298 82.587 272.018 82.3601 272.669C82.1373 273.314 81.7862 273.859 81.307 274.303C80.8322 274.746 80.2426 275.062 79.5383 275.251ZM79.4298 274.012C79.8392 273.902 80.1781 273.707 80.4463 273.426C80.7142 273.14 80.9061 272.784 81.022 272.358C81.1379 271.932 81.172 271.447 81.1243 270.902L81.1231 270.889C81.0751 270.339 80.9593 269.892 80.7759 269.546C80.5925 269.2 80.3487 268.963 80.0447 268.836C79.7403 268.704 79.3834 268.692 78.9741 268.802C78.5647 268.912 78.2261 269.109 77.9582 269.395C77.6899 269.676 77.4957 270.03 77.3753 270.457C77.2594 270.883 77.2255 271.371 77.2736 271.92L77.2748 271.934C77.3224 272.478 77.438 272.924 77.6214 273.27C77.8092 273.614 78.0554 273.853 78.3598 273.985C78.6638 274.112 79.0205 274.121 79.4298 274.012ZM87.0256 273.147C86.242 273.357 85.6607 273.355 85.2815 273.141C84.9063 272.921 84.6878 272.456 84.6258 271.748L84.2511 267.465L83.1286 267.766L83.0267 266.601L84.1492 266.3L83.9859 264.434L85.4518 264.042L85.615 265.907L87.1536 265.495L87.2554 266.66L85.7169 267.072L86.0601 270.994C86.0951 271.394 86.1973 271.662 86.3669 271.797C86.536 271.929 86.7989 271.946 87.1555 271.851C87.2611 271.823 87.3512 271.796 87.4256 271.772C87.5044 271.746 87.5941 271.715 87.6945 271.679L87.7982 272.864C87.6853 272.912 87.5635 272.961 87.4326 273.01C87.3021 273.064 87.1665 273.109 87.0256 273.147ZM89.1885 272.519L88.5414 265.123L89.9809 264.738L90.6279 272.133L89.1885 272.519ZM89.1522 263.608C88.9057 263.674 88.6864 263.639 88.4945 263.505C88.3025 263.371 88.1954 263.176 88.1731 262.922C88.1509 262.668 88.2201 262.429 88.3807 262.204C88.5409 261.976 88.7442 261.828 88.9907 261.762C89.2372 261.696 89.4565 261.73 89.6484 261.865C89.84 261.995 89.9469 262.187 89.9692 262.441C89.9914 262.695 89.9224 262.937 89.7622 263.165C89.602 263.394 89.3987 263.542 89.1522 263.608ZM92.9072 271.522L92.362 265.291L91.1801 265.608L91.0782 264.444L92.2602 264.127L92.1922 263.351C92.149 262.856 92.1924 262.426 92.3227 262.061C92.457 261.691 92.6822 261.382 92.9985 261.134C93.3147 260.887 93.7238 260.696 94.2256 260.562C94.3841 260.519 94.5321 260.486 94.6698 260.463C94.8115 260.435 94.9471 260.415 95.0768 260.403L95.1721 261.493C95.1049 261.497 95.0226 261.51 94.9254 261.531C94.8322 261.547 94.7305 261.569 94.6205 261.599C94.2243 261.705 93.9489 261.879 93.7943 262.12C93.6441 262.36 93.5853 262.666 93.6179 263.038L93.6798 263.747L95.2645 263.322L95.3664 264.486L93.7949 264.907L94.34 271.139L92.9072 271.522ZM97.2334 270.363L96.5864 262.968L98.0258 262.582L98.6729 269.978L97.2334 270.363ZM97.1971 261.452C96.9506 261.518 96.7314 261.484 96.5394 261.349C96.3474 261.215 96.2403 261.021 96.2181 260.766C96.1958 260.512 96.265 260.273 96.4256 260.049C96.5858 259.82 96.7892 259.673 97.0357 259.606C97.2822 259.54 97.5014 259.575 97.6934 259.709C97.885 259.839 97.9919 260.031 98.0141 260.285C98.0364 260.539 97.9674 260.781 97.8072 261.01C97.647 261.238 97.4436 261.386 97.1971 261.452ZM103.474 268.838C102.778 269.024 102.164 269.031 101.631 268.857C101.101 268.679 100.675 268.338 100.352 267.834C100.028 267.331 99.8318 266.679 99.7619 265.88L99.7607 265.867C99.6919 265.081 99.767 264.369 99.9859 263.729C100.209 263.089 100.558 262.547 101.033 262.104C101.512 261.659 102.1 261.344 102.795 261.158C103.398 260.996 103.925 260.966 104.375 261.069C104.83 261.165 105.201 261.368 105.49 261.676C105.782 261.979 105.982 262.36 106.09 262.819L106.099 262.851L104.719 263.221L104.711 263.209C104.6 262.867 104.391 262.614 104.084 262.45C103.777 262.282 103.385 262.261 102.91 262.389C102.513 262.495 102.181 262.691 101.914 262.976C101.645 263.257 101.451 263.611 101.331 264.038C101.215 264.464 101.18 264.943 101.227 265.474L101.228 265.488C101.275 266.032 101.393 266.479 101.582 266.829C101.77 267.178 102.016 267.421 102.321 267.557C102.626 267.689 102.974 267.703 103.365 267.598C103.814 267.478 104.169 267.278 104.428 267C104.692 266.72 104.864 266.365 104.943 265.935L104.953 265.897L106.326 265.522L106.318 265.587C106.277 266.091 106.144 266.558 105.921 266.99C105.697 267.422 105.381 267.799 104.972 268.122C104.568 268.44 104.068 268.678 103.474 268.838ZM109.825 267.115C109.372 267.236 108.957 267.257 108.581 267.176C108.208 267.09 107.904 266.909 107.668 266.633C107.432 266.357 107.295 265.997 107.256 265.552L107.255 265.538C107.216 265.094 107.286 264.687 107.465 264.318C107.649 263.948 107.932 263.622 108.312 263.338C108.697 263.049 109.172 262.811 109.736 262.622L112.37 261.749L112.461 262.791L110.026 263.611C109.535 263.775 109.182 263.981 108.965 264.23C108.747 264.474 108.653 264.762 108.682 265.093L108.683 265.107C108.713 265.443 108.861 265.675 109.129 265.803C109.397 265.926 109.722 265.937 110.105 265.834C110.462 265.738 110.772 265.581 111.037 265.361C111.306 265.136 111.508 264.877 111.645 264.585C111.781 264.288 111.835 263.981 111.808 263.663L111.604 261.334C111.568 260.926 111.418 260.648 111.152 260.5C110.891 260.347 110.521 260.335 110.041 260.464C109.64 260.571 109.319 260.732 109.076 260.945C108.838 261.158 108.689 261.407 108.628 261.693L108.616 261.717L107.236 262.086L107.239 262.037C107.26 261.613 107.386 261.217 107.615 260.849C107.848 260.475 108.166 260.148 108.57 259.868C108.978 259.587 109.452 259.374 109.994 259.229C110.597 259.067 111.116 259.03 111.552 259.118C111.991 259.2 112.335 259.398 112.584 259.713C112.836 260.021 112.985 260.435 113.03 260.952L113.473 266.012L112.046 266.394L111.955 265.345L111.849 265.374C111.73 265.661 111.573 265.922 111.377 266.155C111.181 266.385 110.952 266.58 110.692 266.743C110.431 266.906 110.142 267.03 109.825 267.115ZM117.896 264.876C117.112 265.086 116.531 265.083 116.151 264.869C115.776 264.649 115.558 264.185 115.496 263.477L115.121 259.193L113.998 259.494L113.897 258.329L115.019 258.029L114.856 256.163L116.322 255.77L116.485 257.636L118.023 257.224L118.125 258.388L116.587 258.8L116.93 262.723C116.965 263.122 117.067 263.39 117.237 263.526C117.406 263.657 117.669 263.675 118.025 263.579C118.131 263.551 118.221 263.525 118.296 263.5C118.374 263.474 118.464 263.443 118.564 263.407L118.668 264.592C118.555 264.641 118.433 264.69 118.303 264.739C118.172 264.792 118.036 264.838 117.896 264.876ZM120.058 264.247L119.411 256.852L120.851 256.466L121.498 263.862L120.058 264.247ZM120.022 255.336C119.776 255.402 119.556 255.368 119.364 255.233C119.172 255.099 119.065 254.905 119.043 254.65C119.021 254.396 119.09 254.157 119.251 253.933C119.411 253.704 119.614 253.557 119.861 253.491C120.107 253.424 120.326 253.459 120.518 253.593C120.71 253.723 120.817 253.915 120.839 254.169C120.861 254.423 120.792 254.665 120.632 254.894C120.472 255.123 120.269 255.27 120.022 255.336ZM126.319 262.716C125.619 262.904 125 262.912 124.462 262.74C123.929 262.567 123.501 262.231 123.178 261.732C122.855 261.228 122.658 260.582 122.589 259.792L122.588 259.778C122.519 258.984 122.595 258.264 122.818 257.619C123.045 256.972 123.399 256.427 123.878 255.983C124.361 255.537 124.951 255.221 125.647 255.035C126.346 254.847 126.963 254.84 127.496 255.013C128.029 255.182 128.457 255.517 128.781 256.021C129.108 256.519 129.306 257.165 129.376 257.959L129.377 257.973C129.446 258.763 129.367 259.483 129.14 260.134C128.918 260.779 128.567 261.324 128.087 261.768C127.612 262.212 127.023 262.528 126.319 262.716ZM126.21 261.477C126.62 261.367 126.958 261.172 127.227 260.891C127.494 260.605 127.686 260.25 127.802 259.824C127.918 259.398 127.952 258.912 127.905 258.367L127.903 258.354C127.855 257.804 127.74 257.357 127.556 257.011C127.373 256.665 127.129 256.429 126.825 256.301C126.521 256.169 126.164 256.158 125.754 256.267C125.345 256.377 125.006 256.575 124.739 256.86C124.47 257.141 124.276 257.495 124.156 257.922C124.04 258.348 124.006 258.836 124.054 259.385L124.055 259.399C124.103 259.944 124.218 260.389 124.402 260.735C124.59 261.079 124.836 261.318 125.14 261.45C125.444 261.578 125.801 261.587 126.21 261.477ZM131.095 261.29L130.447 253.895L131.88 253.511L131.978 254.628L132.09 254.597C132.232 254.155 132.465 253.777 132.788 253.463C133.112 253.148 133.536 252.921 134.06 252.78C134.866 252.564 135.503 252.638 135.971 253C136.44 253.362 136.713 253.984 136.79 254.864L137.209 259.652L135.769 260.038L135.381 255.597C135.327 254.98 135.161 254.555 134.884 254.323C134.611 254.085 134.21 254.036 133.682 254.178C133.334 254.271 133.04 254.431 132.798 254.659C132.557 254.881 132.378 255.157 132.263 255.485C132.151 255.808 132.113 256.169 132.148 256.568L132.527 260.906L131.095 261.29ZM141.515 258.645C140.938 258.799 140.429 258.847 139.986 258.789C139.544 258.726 139.184 258.574 138.906 258.333C138.628 258.087 138.448 257.763 138.368 257.362L138.367 257.348L139.806 256.963L139.808 256.976C139.924 257.228 140.12 257.406 140.395 257.509C140.67 257.612 141.021 257.606 141.448 257.492C141.742 257.413 141.996 257.3 142.209 257.155C142.426 257.009 142.591 256.841 142.705 256.653C142.82 256.464 142.868 256.27 142.85 256.07L142.849 256.057C142.829 255.825 142.722 255.654 142.527 255.544C142.333 255.433 142.024 255.383 141.602 255.394L140.429 255.43C139.971 255.446 139.587 255.402 139.276 255.3C138.965 255.197 138.728 255.033 138.564 254.807C138.399 254.577 138.302 254.283 138.27 253.924L138.27 253.917C138.232 253.486 138.317 253.073 138.526 252.678C138.734 252.278 139.039 251.929 139.441 251.631C139.847 251.327 140.321 251.103 140.862 250.958C141.408 250.811 141.891 250.772 142.312 250.841C142.736 250.904 143.081 251.058 143.346 251.303C143.61 251.543 143.782 251.86 143.861 252.252L143.862 252.259L142.488 252.627L142.487 252.613C142.398 252.372 142.221 252.199 141.955 252.094C141.694 251.987 141.36 251.988 140.955 252.097C140.696 252.166 140.468 252.271 140.273 252.412C140.078 252.548 139.927 252.707 139.822 252.888C139.72 253.064 139.678 253.252 139.695 253.452L139.696 253.465C139.71 253.62 139.759 253.746 139.844 253.844C139.934 253.936 140.066 254.005 140.241 254.051C140.416 254.093 140.638 254.112 140.908 254.109L142.074 254.069C142.775 254.053 143.307 254.159 143.67 254.387C144.036 254.614 144.243 254.995 144.29 255.531L144.291 255.545C144.331 255.999 144.236 256.435 144.007 256.855C143.778 257.269 143.447 257.634 143.015 257.95C142.587 258.26 142.087 258.491 141.515 258.645Z" fill="white"/>
<rect width="116" height="32" rx="16" transform="matrix(0.965926 -0.258819 0.0871557 0.996195 170.721 229.771)" fill="#8CC848"/>
<path d="M192.794 245.002C192.076 245.194 191.441 245.246 190.888 245.157C190.335 245.064 189.886 244.849 189.541 244.514C189.196 244.179 188.978 243.743 188.886 243.205L188.872 243.119L190.331 242.728L190.344 242.801C190.401 243.088 190.535 243.314 190.748 243.48C190.965 243.645 191.244 243.744 191.585 243.778C191.93 243.811 192.317 243.771 192.744 243.656C193.144 243.549 193.495 243.387 193.796 243.172C194.097 242.957 194.325 242.71 194.481 242.431C194.642 242.151 194.709 241.861 194.682 241.562L194.682 241.555C194.649 241.178 194.483 240.902 194.183 240.726C193.884 240.551 193.414 240.477 192.772 240.505L191.709 240.56C190.726 240.605 189.995 240.455 189.514 240.11C189.033 239.76 188.761 239.222 188.697 238.496L188.696 238.489C188.651 237.92 188.755 237.381 189.008 236.872C189.265 236.362 189.643 235.917 190.141 235.537C190.639 235.157 191.225 234.877 191.899 234.697C192.572 234.516 193.171 234.479 193.694 234.585C194.22 234.686 194.647 234.901 194.973 235.232C195.304 235.561 195.509 235.978 195.589 236.482L195.604 236.568L194.158 236.956L194.137 236.871C194.074 236.614 193.945 236.404 193.751 236.243C193.561 236.08 193.315 235.978 193.014 235.938C192.718 235.892 192.378 235.923 191.995 236.03C191.626 236.129 191.301 236.276 191.02 236.472C190.74 236.664 190.523 236.891 190.371 237.155C190.222 237.418 190.162 237.704 190.189 238.012L190.189 238.019C190.221 238.382 190.382 238.651 190.672 238.824C190.966 238.991 191.425 239.061 192.049 239.033L193.113 238.992C193.79 238.959 194.346 239.008 194.781 239.138C195.216 239.267 195.543 239.484 195.764 239.787C195.988 240.085 196.121 240.477 196.164 240.962L196.164 240.969C196.219 241.596 196.117 242.178 195.858 242.717C195.603 243.25 195.213 243.715 194.689 244.111C194.165 244.507 193.533 244.804 192.794 245.002ZM197.951 243.376L197.05 233.079L198.483 232.695L198.834 236.713L198.947 236.683C199.088 236.241 199.321 235.863 199.645 235.548C199.969 235.234 200.393 235.006 200.916 234.866C201.449 234.723 201.91 234.709 202.298 234.823C202.686 234.938 202.996 235.176 203.225 235.537C203.455 235.893 203.595 236.365 203.646 236.95L204.065 241.738L202.626 242.123L202.237 237.683C202.183 237.066 202.018 236.641 201.741 236.409C201.468 236.17 201.067 236.122 200.539 236.264C200.191 236.357 199.896 236.517 199.655 236.744C199.413 236.967 199.234 237.243 199.119 237.571C199.008 237.894 198.969 238.255 199.004 238.654L199.384 242.992L197.951 243.376ZM207.729 240.881C207.275 241.003 206.86 241.024 206.484 240.943C206.111 240.857 205.807 240.676 205.571 240.4C205.336 240.124 205.198 239.764 205.159 239.319L205.158 239.305C205.119 238.86 205.189 238.453 205.369 238.085C205.553 237.715 205.835 237.388 206.216 237.105C206.6 236.816 207.075 236.578 207.64 236.389L210.273 235.516L210.364 236.558L207.929 237.378C207.439 237.542 207.085 237.748 206.868 237.997C206.651 238.241 206.557 238.529 206.585 238.86L206.587 238.874C206.616 239.21 206.765 239.442 207.033 239.57C207.3 239.693 207.626 239.703 208.009 239.601C208.365 239.505 208.676 239.348 208.94 239.128C209.209 238.903 209.412 238.644 209.548 238.352C209.684 238.055 209.739 237.748 209.711 237.43L209.507 235.101C209.471 234.693 209.321 234.415 209.056 234.267C208.795 234.114 208.424 234.102 207.944 234.231C207.544 234.338 207.222 234.498 206.979 234.712C206.741 234.925 206.592 235.174 206.531 235.459L206.52 235.483L205.14 235.853L205.142 235.804C205.164 235.38 205.289 234.984 205.518 234.616C205.751 234.242 206.07 233.915 206.473 233.635C206.881 233.354 207.356 233.141 207.897 232.996C208.5 232.834 209.019 232.797 209.455 232.885C209.895 232.967 210.239 233.165 210.487 233.479C210.739 233.788 210.888 234.201 210.933 234.719L211.376 239.779L209.95 240.161L209.858 239.112L209.752 239.14C209.633 239.428 209.476 239.688 209.28 239.922C209.084 240.151 208.856 240.347 208.595 240.51C208.334 240.673 208.046 240.797 207.729 240.881ZM213.087 239.32L212.44 231.925L213.873 231.541L213.971 232.657L214.083 232.627C214.176 232.198 214.374 231.832 214.676 231.528C214.983 231.222 215.374 231.006 215.849 230.879C215.968 230.847 216.086 230.822 216.201 230.805C216.317 230.788 216.411 230.779 216.483 230.779L216.602 232.141C216.472 232.148 216.342 232.161 216.214 232.182C216.089 232.201 215.959 232.229 215.822 232.266C215.457 232.364 215.142 232.523 214.877 232.742C214.617 232.961 214.419 233.223 214.284 233.529C214.152 233.829 214.102 234.158 214.134 234.517L214.52 238.936L213.087 239.32ZM218.226 237.943L217.579 230.548L219.018 230.162L219.665 237.558L218.226 237.943ZM218.19 229.032C217.943 229.098 217.724 229.064 217.532 228.929C217.34 228.795 217.233 228.601 217.211 228.346C217.188 228.092 217.257 227.853 217.418 227.629C217.578 227.4 217.782 227.253 218.028 227.187C218.275 227.12 218.494 227.155 218.686 227.289C218.877 227.419 218.984 227.611 219.007 227.865C219.029 228.119 218.96 228.361 218.8 228.59C218.639 228.819 218.436 228.966 218.19 229.032ZM221.436 237.083L220.789 229.688L222.222 229.304L222.32 230.42L222.432 230.39C222.573 229.948 222.806 229.57 223.13 229.255C223.454 228.941 223.878 228.714 224.402 228.573C225.207 228.357 225.844 228.431 226.313 228.793C226.782 229.155 227.055 229.777 227.132 230.657L227.551 235.445L226.111 235.831L225.723 231.39C225.669 230.773 225.503 230.348 225.226 230.116C224.953 229.878 224.552 229.829 224.024 229.971C223.676 230.064 223.382 230.224 223.14 230.452C222.898 230.674 222.72 230.95 222.604 231.278C222.493 231.601 222.455 231.962 222.49 232.361L222.869 236.699L221.436 237.083ZM232.495 236.789C231.887 236.952 231.351 237.007 230.887 236.955C230.427 236.902 230.054 236.756 229.768 236.516C229.481 236.277 229.291 235.961 229.198 235.568L229.203 235.553L230.656 235.163L230.664 235.175C230.748 235.413 230.94 235.575 231.24 235.662C231.541 235.749 231.931 235.728 232.411 235.599C233.001 235.441 233.448 235.179 233.754 234.814C234.065 234.447 234.198 234.014 234.154 233.515L234.027 232.065L233.915 232.095C233.797 232.396 233.637 232.671 233.433 232.921C233.229 233.166 232.991 233.374 232.717 233.545C232.444 233.715 232.142 233.845 231.812 233.934C231.205 234.096 230.663 234.088 230.188 233.909C229.717 233.724 229.337 233.398 229.048 232.932C228.764 232.46 228.591 231.876 228.53 231.182L228.529 231.168C228.468 230.464 228.534 229.81 228.729 229.205C228.924 228.595 229.232 228.078 229.654 227.654C230.076 227.225 230.598 226.927 231.218 226.761C231.553 226.671 231.864 226.643 232.151 226.678C232.442 226.712 232.704 226.799 232.937 226.941C233.17 227.083 233.37 227.274 233.535 227.513L233.62 227.49L233.514 226.278L234.947 225.894L235.581 233.14C235.63 233.698 235.536 234.22 235.299 234.707C235.067 235.192 234.712 235.614 234.234 235.975C233.757 236.335 233.177 236.607 232.495 236.789ZM232.108 232.6C232.513 232.491 232.852 232.3 233.125 232.027C233.398 231.75 233.597 231.416 233.72 231.025C233.848 230.633 233.892 230.207 233.852 229.749L233.851 229.735C233.811 229.281 233.696 228.898 233.507 228.587C233.322 228.274 233.075 228.057 232.767 227.935C232.459 227.813 232.103 227.806 231.698 227.915C231.293 228.023 230.956 228.216 230.687 228.492C230.423 228.767 230.232 229.102 230.113 229.496C229.994 229.886 229.954 230.31 229.995 230.769L229.996 230.782C230.036 231.241 230.146 231.625 230.326 231.934C230.507 232.244 230.746 232.46 231.045 232.585C231.349 232.703 231.703 232.708 232.108 232.6ZM243.309 231.222L242.565 222.717L239.567 223.52L239.452 222.199L246.926 220.196L247.042 221.517L244.044 222.32L244.788 230.826L243.309 231.222ZM249.766 229.618C249.312 229.739 248.897 229.76 248.521 229.679C248.148 229.593 247.844 229.412 247.608 229.136C247.372 228.86 247.235 228.5 247.196 228.055L247.195 228.041C247.156 227.597 247.226 227.19 247.406 226.821C247.59 226.451 247.872 226.125 248.253 225.841C248.637 225.552 249.112 225.314 249.677 225.125L252.31 224.252L252.401 225.294L249.966 226.114C249.476 226.278 249.122 226.484 248.905 226.733C248.688 226.977 248.593 227.265 248.622 227.596L248.624 227.61C248.653 227.946 248.802 228.178 249.07 228.306C249.337 228.429 249.663 228.44 250.045 228.337C250.402 228.241 250.713 228.084 250.977 227.864C251.246 227.639 251.449 227.38 251.585 227.088C251.721 226.791 251.776 226.484 251.748 226.166L251.544 223.837C251.508 223.429 251.358 223.151 251.093 223.004C250.831 222.85 250.461 222.838 249.981 222.967C249.581 223.074 249.259 223.235 249.016 223.448C248.778 223.661 248.629 223.91 248.568 224.196L248.557 224.22L247.177 224.589L247.179 224.54C247.201 224.116 247.326 223.72 247.555 223.352C247.788 222.978 248.106 222.651 248.51 222.371C248.918 222.09 249.392 221.877 249.934 221.732C250.537 221.57 251.056 221.533 251.492 221.621C251.932 221.703 252.276 221.901 252.524 222.216C252.776 222.525 252.925 222.938 252.97 223.455L253.413 228.515L251.987 228.897L251.895 227.848L251.789 227.877C251.67 228.164 251.513 228.425 251.317 228.658C251.121 228.888 250.892 229.083 250.632 229.246C250.371 229.409 250.083 229.533 249.766 229.618ZM257.745 227.501C257.168 227.655 256.659 227.703 256.217 227.645C255.774 227.583 255.414 227.43 255.136 227.189C254.858 226.943 254.679 226.619 254.599 226.218L254.597 226.204L256.037 225.819L256.038 225.832C256.155 226.084 256.35 226.262 256.625 226.365C256.9 226.468 257.251 226.462 257.678 226.348C257.973 226.269 258.227 226.157 258.439 226.011C258.656 225.865 258.822 225.697 258.936 225.509C259.05 225.32 259.098 225.126 259.081 224.926L259.08 224.913C259.059 224.681 258.952 224.51 258.758 224.4C258.563 224.289 258.255 224.239 257.832 224.25L256.66 224.286C256.201 224.302 255.817 224.258 255.506 224.156C255.195 224.053 254.958 223.889 254.794 223.663C254.63 223.433 254.532 223.139 254.501 222.78L254.5 222.774C254.462 222.342 254.548 221.929 254.756 221.534C254.965 221.134 255.27 220.785 255.672 220.487C256.078 220.183 256.551 219.959 257.093 219.814C257.639 219.667 258.122 219.629 258.542 219.697C258.967 219.76 259.311 219.914 259.576 220.159C259.84 220.399 260.012 220.716 260.092 221.108L260.092 221.115L258.719 221.483L258.718 221.469C258.629 221.228 258.452 221.055 258.186 220.95C257.924 220.843 257.591 220.844 257.186 220.953C256.926 221.022 256.699 221.127 256.504 221.268C256.308 221.404 256.158 221.563 256.052 221.744C255.95 221.92 255.908 222.108 255.926 222.308L255.927 222.321C255.94 222.476 255.99 222.602 256.075 222.7C256.164 222.792 256.296 222.861 256.471 222.907C256.646 222.949 256.869 222.968 257.139 222.966L258.304 222.925C259.006 222.909 259.538 223.015 259.9 223.243C260.267 223.47 260.474 223.852 260.52 224.387L260.522 224.401C260.561 224.855 260.467 225.291 260.238 225.711C260.008 226.125 259.677 226.49 259.245 226.806C258.817 227.116 258.317 227.347 257.745 227.501ZM262.171 226.168L261.27 215.872L262.703 215.488L263.604 225.784L262.171 226.168ZM266.687 224.958L263.809 222.182L264.792 220.978L268.437 224.489L266.687 224.958ZM263.243 223.281L263.031 221.554L263.341 221.471L265.908 217.598L267.592 217.147L264.652 221.391L264.139 222.01L263.243 223.281Z" fill="white"/>
<rect width="61" height="32" rx="16" transform="matrix(0.965926 -0.258819 0.0871557 0.996195 19.0422 315.274)" fill="#FD9C8C"/>
<path d="M38.31 327.576L38.198 326.296L40.7995 325.598C41.4422 325.426 41.9248 325.123 42.2471 324.688C42.5735 324.247 42.7101 323.723 42.6569 323.114L42.6557 323.101C42.6017 322.483 42.3815 322.052 41.9951 321.807C41.6132 321.561 41.1008 321.524 40.4582 321.696L37.8566 322.393L37.744 321.106L40.7153 320.31C41.3404 320.143 41.9004 320.132 42.3952 320.278C42.8941 320.419 43.299 320.696 43.61 321.11C43.9206 321.519 44.104 322.044 44.16 322.684L44.1612 322.697C44.2172 323.338 44.1323 323.939 43.9067 324.501C43.6807 325.059 43.3419 325.538 42.8903 325.937C42.4427 326.331 41.9064 326.612 41.2813 326.78L38.31 327.576ZM37.8642 331.131L37.0044 321.305L38.4835 320.908L39.3432 330.735L37.8642 331.131ZM46.238 328.887L45.3372 318.591L46.77 318.207L47.6709 328.504L46.238 328.887ZM51.473 327.61C51.0196 327.732 50.6046 327.752 50.2282 327.672C49.8557 327.586 49.5515 327.405 49.3157 327.129C49.0798 326.853 48.9424 326.492 48.9034 326.048L48.9022 326.034C48.8633 325.589 48.9336 325.182 49.1131 324.814C49.297 324.444 49.5793 324.117 49.96 323.834C50.3447 323.545 50.8193 323.306 51.384 323.118L54.0175 322.245L54.1087 323.287L51.6733 324.107C51.183 324.271 50.8294 324.477 50.6124 324.725C50.395 324.97 50.3007 325.257 50.3297 325.589L50.3309 325.602C50.3603 325.938 50.509 326.17 50.777 326.298C51.0446 326.422 51.3699 326.432 51.7529 326.329C52.1094 326.234 52.42 326.076 52.6846 325.857C52.9533 325.631 53.1559 325.373 53.2925 325.081C53.4287 324.784 53.4829 324.477 53.4551 324.159L53.2514 321.83C53.2156 321.421 53.0652 321.143 52.8 320.996C52.5388 320.843 52.1683 320.831 51.6885 320.959C51.2879 321.067 50.9663 321.227 50.7237 321.441C50.4855 321.653 50.3361 321.902 50.2755 322.188L50.2641 322.212L48.8841 322.582L48.8865 322.532C48.908 322.109 49.0333 321.713 49.2624 321.345C49.4955 320.971 49.8138 320.644 50.2173 320.364C50.6252 320.083 51.0998 319.869 51.6413 319.724C52.2444 319.563 52.7637 319.526 53.1994 319.614C53.6391 319.696 53.983 319.894 54.2313 320.208C54.4836 320.517 54.6323 320.93 54.6776 321.448L55.1203 326.507L53.6941 326.89L53.6023 325.841L53.4967 325.869C53.3776 326.157 53.2202 326.417 53.0244 326.651C52.8282 326.88 52.5998 327.076 52.3392 327.239C52.0787 327.401 51.7899 327.525 51.473 327.61ZM56.8317 326.049L56.1847 318.653L57.6176 318.269L57.7153 319.386L57.8275 319.356C57.969 318.914 58.2017 318.536 58.5256 318.221C58.8495 317.907 59.2734 317.679 59.7972 317.539C60.6028 317.323 61.2399 317.396 61.7086 317.759C62.1773 318.121 62.4502 318.742 62.5273 319.623L62.9461 324.411L61.5067 324.796L61.1182 320.356C61.0642 319.739 60.8986 319.314 60.6215 319.081C60.3484 318.843 59.9477 318.795 59.4194 318.937C59.0717 319.03 58.7771 319.19 58.5357 319.417C58.2939 319.64 58.1152 319.916 57.9998 320.244C57.8884 320.566 57.8501 320.928 57.8851 321.327L58.2646 325.665L56.8317 326.049Z" fill="white"/>
<rect width="89" height="32" rx="16" transform="matrix(0.965926 -0.258819 0.0871557 0.996195 89.5549 296.38)" fill="#564BC5"/>
<path d="M110.483 311.673L109.739 303.168L106.741 303.971L106.626 302.65L114.101 300.647L114.216 301.968L111.218 302.771L111.962 311.277L110.483 311.673ZM116.94 310.069C116.486 310.19 116.072 310.211 115.695 310.13C115.323 310.044 115.018 309.863 114.783 309.587C114.547 309.311 114.409 308.951 114.37 308.506L114.369 308.492C114.33 308.047 114.401 307.641 114.58 307.272C114.764 306.902 115.046 306.576 115.427 306.292C115.812 306.003 116.286 305.765 116.851 305.576L119.484 304.703L119.576 305.745L117.14 306.565C116.65 306.729 116.296 306.935 116.079 307.184C115.862 307.428 115.768 307.716 115.797 308.047L115.798 308.061C115.827 308.397 115.976 308.629 116.244 308.757C116.512 308.88 116.837 308.891 117.22 308.788C117.576 308.692 117.887 308.535 118.152 308.315C118.42 308.09 118.623 307.831 118.759 307.539C118.896 307.242 118.95 306.935 118.922 306.617L118.718 304.288C118.683 303.88 118.532 303.602 118.267 303.454C118.006 303.301 117.635 303.289 117.155 303.418C116.755 303.525 116.433 303.686 116.191 303.899C115.952 304.112 115.803 304.361 115.742 304.647L115.731 304.671L114.351 305.04L114.353 304.991C114.375 304.567 114.5 304.171 114.729 303.803C114.962 303.429 115.281 303.102 115.684 302.822C116.092 302.541 116.567 302.328 117.108 302.183C117.711 302.021 118.231 301.984 118.666 302.072C119.106 302.154 119.45 302.352 119.698 302.667C119.951 302.975 120.099 303.389 120.145 303.906L120.587 308.966L119.161 309.348L119.069 308.299L118.964 308.328C118.845 308.615 118.687 308.876 118.491 309.109C118.295 309.338 118.067 309.534 117.806 309.697C117.546 309.86 117.257 309.984 116.94 310.069ZM124.919 307.951C124.343 308.106 123.833 308.154 123.391 308.096C122.949 308.033 122.589 307.881 122.311 307.64C122.032 307.394 121.853 307.07 121.773 306.669L121.772 306.655L123.211 306.27L123.212 306.283C123.329 306.535 123.525 306.713 123.8 306.816C124.074 306.919 124.425 306.913 124.852 306.799C125.147 306.72 125.401 306.607 125.614 306.462C125.83 306.316 125.996 306.148 126.11 305.96C126.224 305.771 126.273 305.577 126.255 305.377L126.254 305.364C126.234 305.132 126.126 304.961 125.932 304.851C125.738 304.74 125.429 304.69 125.007 304.701L123.834 304.737C123.376 304.753 122.991 304.709 122.68 304.607C122.37 304.504 122.132 304.34 121.968 304.114C121.804 303.884 121.706 303.59 121.675 303.231L121.674 303.224C121.637 302.793 121.722 302.38 121.931 301.985C122.139 301.585 122.444 301.236 122.846 300.938C123.252 300.634 123.726 300.41 124.267 300.265C124.813 300.118 125.296 300.079 125.717 300.148C126.141 300.211 126.486 300.365 126.75 300.61C127.015 300.85 127.187 301.167 127.266 301.559L127.267 301.566L125.893 301.934L125.892 301.92C125.803 301.679 125.626 301.506 125.36 301.401C125.098 301.294 124.765 301.295 124.36 301.404C124.1 301.473 123.873 301.578 123.678 301.719C123.483 301.855 123.332 302.014 123.226 302.195C123.125 302.371 123.083 302.559 123.1 302.759L123.101 302.772C123.115 302.927 123.164 303.053 123.249 303.151C123.338 303.243 123.471 303.312 123.646 303.358C123.821 303.4 124.043 303.419 124.313 303.416L125.479 303.376C126.18 303.36 126.712 303.466 127.074 303.694C127.441 303.921 127.648 304.302 127.695 304.838L127.696 304.852C127.736 305.306 127.641 305.742 127.412 306.162C127.182 306.576 126.852 306.941 126.42 307.257C125.992 307.567 125.492 307.798 124.919 307.951ZM129.345 306.619L128.444 296.323L129.877 295.939L130.778 306.235L129.345 306.619ZM133.862 305.409L130.983 302.633L131.966 301.429L135.612 304.94L133.862 305.409ZM130.417 303.732L130.205 302.005L130.516 301.922L133.083 298.049L134.766 297.598L131.826 301.842L131.313 302.461L130.417 303.732ZM140.144 303.726L139.284 293.899L140.763 293.503L141.507 302.008L145.977 300.811L146.093 302.132L140.144 303.726ZM147.507 301.753L146.86 294.357L148.3 293.971L148.947 301.367L147.507 301.753ZM147.471 292.841C147.225 292.907 147.005 292.873 146.813 292.739C146.621 292.604 146.514 292.41 146.492 292.156C146.47 291.902 146.539 291.662 146.7 291.438C146.86 291.209 147.063 291.062 147.31 290.996C147.556 290.93 147.775 290.964 147.967 291.098C148.159 291.228 148.266 291.42 148.288 291.675C148.31 291.929 148.241 292.17 148.081 292.399C147.921 292.628 147.718 292.775 147.471 292.841ZM153.338 300.337C152.762 300.491 152.252 300.539 151.81 300.481C151.368 300.419 151.008 300.267 150.73 300.025C150.451 299.779 150.272 299.455 150.192 299.054L150.191 299.04L151.63 298.655L151.631 298.668C151.748 298.92 151.944 299.098 152.219 299.201C152.493 299.304 152.844 299.298 153.271 299.184C153.566 299.105 153.82 298.993 154.032 298.847C154.249 298.701 154.415 298.533 154.529 298.345C154.643 298.156 154.692 297.962 154.674 297.762L154.673 297.749C154.653 297.517 154.545 297.346 154.351 297.236C154.157 297.125 153.848 297.075 153.426 297.086L152.253 297.122C151.795 297.138 151.41 297.094 151.099 296.992C150.789 296.889 150.551 296.725 150.387 296.5C150.223 296.269 150.125 295.975 150.094 295.616L150.093 295.61C150.056 295.178 150.141 294.765 150.35 294.37C150.558 293.97 150.863 293.621 151.265 293.323C151.671 293.019 152.145 292.795 152.686 292.65C153.232 292.503 153.715 292.465 154.136 292.533C154.56 292.596 154.905 292.75 155.169 292.995C155.434 293.235 155.606 293.552 155.685 293.944L155.686 293.951L154.312 294.319L154.311 294.305C154.222 294.064 154.045 293.891 153.779 293.786C153.517 293.679 153.184 293.68 152.779 293.789C152.519 293.858 152.292 293.963 152.097 294.104C151.902 294.24 151.751 294.399 151.645 294.58C151.544 294.756 151.501 294.944 151.519 295.144L151.52 295.158C151.534 295.312 151.583 295.438 151.668 295.536C151.757 295.628 151.89 295.697 152.065 295.743C152.24 295.785 152.462 295.804 152.732 295.802L153.898 295.761C154.599 295.745 155.131 295.851 155.493 296.079C155.86 296.306 156.067 296.688 156.114 297.223L156.115 297.237C156.155 297.691 156.06 298.128 155.831 298.547C155.601 298.961 155.271 299.326 154.839 299.642C154.411 299.952 153.911 300.183 153.338 300.337ZM160.357 298.358C159.573 298.568 158.992 298.566 158.613 298.352C158.238 298.132 158.019 297.668 157.957 296.959L157.582 292.676L156.46 292.977L156.358 291.812L157.48 291.511L157.317 289.646L158.783 289.253L158.946 291.119L160.485 290.706L160.587 291.871L159.048 292.283L159.391 296.206C159.426 296.605 159.529 296.873 159.698 297.009C159.867 297.14 160.13 297.158 160.487 297.062C160.592 297.034 160.682 297.007 160.757 296.983C160.836 296.957 160.925 296.926 161.026 296.89L161.129 298.075C161.017 298.124 160.895 298.173 160.764 298.222C160.633 298.275 160.498 298.321 160.357 298.358Z" fill="white"/>
<rect width="121" height="32" rx="16" transform="matrix(0.965926 -0.258819 0.0871557 0.996195 187.113 270.239)" fill="#61D0CA"/>
<path d="M209.682 285.337C208.999 285.519 208.377 285.565 207.815 285.474C207.252 285.379 206.76 285.158 206.338 284.811C205.916 284.464 205.573 284.003 205.311 283.427C205.053 282.846 204.889 282.16 204.82 281.37L204.819 281.357C204.728 280.312 204.829 279.358 205.123 278.494C205.416 277.626 205.875 276.892 206.498 276.293C207.121 275.694 207.876 275.276 208.76 275.039C209.482 274.845 210.139 274.804 210.73 274.915C211.321 275.026 211.819 275.271 212.227 275.65C212.633 276.024 212.922 276.514 213.092 277.119L213.104 277.185L211.619 277.583L211.593 277.52C211.375 276.984 211.03 276.619 210.558 276.425C210.09 276.23 209.53 276.219 208.879 276.394C208.293 276.551 207.799 276.841 207.394 277.266C206.99 277.69 206.694 278.218 206.505 278.849C206.321 279.474 206.263 280.173 206.331 280.945L206.332 280.958C206.383 281.544 206.495 282.053 206.668 282.485C206.846 282.916 207.076 283.263 207.361 283.526C207.645 283.785 207.973 283.955 208.345 284.036C208.717 284.118 209.127 284.098 209.576 283.978C210.096 283.839 210.542 283.612 210.916 283.298C211.293 282.979 211.576 282.601 211.763 282.165C211.95 281.73 212.023 281.259 211.984 280.754L211.971 280.534L209.522 281.191L209.414 279.958L213.329 278.909L213.436 280.128C213.49 280.75 213.443 281.339 213.293 281.895C213.144 282.451 212.904 282.958 212.575 283.418C212.245 283.874 211.836 284.267 211.347 284.598C210.857 284.924 210.302 285.17 209.682 285.337ZM218.384 282.907C217.684 283.095 217.065 283.103 216.528 282.931C215.994 282.758 215.566 282.422 215.243 281.923C214.92 281.419 214.724 280.773 214.655 279.983L214.653 279.969C214.584 279.175 214.66 278.455 214.883 277.81C215.111 277.163 215.464 276.618 215.943 276.174C216.427 275.728 217.016 275.412 217.712 275.226C218.412 275.038 219.028 275.031 219.562 275.204C220.094 275.373 220.523 275.709 220.846 276.212C221.173 276.71 221.372 277.356 221.441 278.15L221.442 278.164C221.512 278.954 221.433 279.674 221.206 280.325C220.983 280.97 220.632 281.515 220.153 281.959C219.678 282.403 219.088 282.719 218.384 282.907ZM218.275 281.668C218.685 281.558 219.024 281.363 219.292 281.082C219.56 280.796 219.752 280.441 219.868 280.015C219.983 279.589 220.018 279.103 219.97 278.558L219.969 278.545C219.921 277.996 219.805 277.548 219.622 277.202C219.438 276.856 219.194 276.62 218.89 276.492C218.586 276.36 218.229 276.349 217.82 276.458C217.41 276.568 217.072 276.766 216.804 277.051C216.536 277.332 216.341 277.686 216.221 278.113C216.105 278.539 216.071 279.027 216.119 279.576L216.12 279.59C216.168 280.135 216.284 280.58 216.467 280.926C216.655 281.27 216.901 281.509 217.205 281.641C217.509 281.769 217.866 281.778 218.275 281.668ZM225.138 281.077C224.685 281.198 224.27 281.219 223.893 281.138C223.521 281.052 223.217 280.871 222.981 280.595C222.745 280.319 222.608 279.959 222.569 279.514L222.568 279.5C222.529 279.055 222.599 278.649 222.778 278.28C222.962 277.91 223.245 277.583 223.625 277.3C224.01 277.011 224.485 276.773 225.049 276.584L227.683 275.711L227.774 276.753L225.339 277.573C224.848 277.737 224.495 277.943 224.278 278.192C224.06 278.436 223.966 278.724 223.995 279.055L223.996 279.069C224.026 279.405 224.174 279.637 224.442 279.765C224.71 279.888 225.035 279.898 225.418 279.796C225.775 279.7 226.085 279.543 226.35 279.323C226.619 279.098 226.821 278.839 226.958 278.547C227.094 278.25 227.148 277.943 227.12 277.625L226.917 275.296C226.881 274.888 226.73 274.61 226.465 274.462C226.204 274.309 225.834 274.297 225.354 274.426C224.953 274.533 224.632 274.693 224.389 274.907C224.151 275.12 224.001 275.369 223.941 275.655L223.929 275.678L222.549 276.048L222.552 275.999C222.573 275.575 222.699 275.179 222.928 274.811C223.161 274.437 223.479 274.11 223.883 273.83C224.29 273.549 224.765 273.336 225.307 273.191C225.91 273.029 226.429 272.992 226.865 273.08C227.304 273.162 227.648 273.36 227.897 273.675C228.149 273.983 228.298 274.397 228.343 274.914L228.786 279.974L227.359 280.356L227.268 279.307L227.162 279.336C227.043 279.623 226.885 279.884 226.69 280.117C226.493 280.346 226.265 280.542 226.005 280.705C225.744 280.868 225.455 280.992 225.138 281.077ZM230.563 279.498L229.662 269.201L231.095 268.817L231.996 279.114L230.563 279.498ZM239.777 277.029L239.033 268.523L236.035 269.326L235.919 268.005L243.394 266.002L243.509 267.324L240.512 268.127L241.256 276.632L239.777 277.029ZM244.677 275.716L244.03 268.32L245.463 267.936L245.561 269.053L245.673 269.023C245.766 268.594 245.964 268.227 246.266 267.923C246.573 267.618 246.964 267.402 247.439 267.274C247.558 267.242 247.675 267.218 247.791 267.201C247.907 267.184 248.001 267.175 248.073 267.174L248.192 268.536C248.062 268.543 247.932 268.557 247.803 268.578C247.679 268.597 247.549 268.625 247.412 268.661C247.047 268.759 246.732 268.918 246.467 269.138C246.207 269.356 246.009 269.618 245.874 269.924C245.742 270.224 245.692 270.553 245.724 270.912L246.11 275.332L244.677 275.716ZM251.722 273.954C251.268 274.075 250.853 274.096 250.477 274.015C250.104 273.929 249.8 273.748 249.564 273.472C249.328 273.196 249.191 272.836 249.152 272.391L249.151 272.377C249.112 271.932 249.182 271.526 249.362 271.157C249.546 270.787 249.828 270.46 250.209 270.177C250.593 269.888 251.068 269.65 251.633 269.461L254.266 268.588L254.357 269.63L251.922 270.45C251.432 270.614 251.078 270.82 250.861 271.069C250.644 271.313 250.549 271.601 250.578 271.932L250.58 271.946C250.609 272.282 250.758 272.514 251.026 272.642C251.293 272.765 251.618 272.775 252.001 272.673C252.358 272.577 252.669 272.42 252.933 272.2C253.202 271.975 253.404 271.716 253.541 271.424C253.677 271.127 253.732 270.82 253.704 270.502L253.5 268.173C253.464 267.765 253.314 267.487 253.049 267.339C252.787 267.186 252.417 267.174 251.937 267.303C251.537 267.41 251.215 267.57 250.972 267.784C250.734 267.997 250.585 268.246 250.524 268.532L250.513 268.556L249.133 268.925L249.135 268.876C249.157 268.452 249.282 268.056 249.511 267.688C249.744 267.314 250.062 266.987 250.466 266.707C250.874 266.426 251.348 266.213 251.89 266.068C252.493 265.906 253.012 265.869 253.448 265.957C253.888 266.039 254.232 266.237 254.48 266.552C254.732 266.86 254.881 267.274 254.926 267.791L255.369 272.851L253.943 273.233L253.851 272.184L253.745 272.213C253.626 272.5 253.469 272.761 253.273 272.994C253.077 273.223 252.848 273.419 252.588 273.582C252.327 273.745 252.039 273.869 251.722 273.954ZM260.11 271.727C259.415 271.913 258.801 271.92 258.267 271.747C257.738 271.568 257.312 271.227 256.988 270.723C256.665 270.22 256.468 269.569 256.398 268.77L256.397 268.756C256.329 267.971 256.404 267.258 256.623 266.619C256.846 265.978 257.195 265.436 257.67 264.993C258.149 264.549 258.736 264.233 259.432 264.047C260.035 263.885 260.562 263.856 261.012 263.958C261.467 264.055 261.838 264.257 262.126 264.566C262.418 264.868 262.618 265.249 262.726 265.708L262.736 265.74L261.356 266.11L261.348 266.098C261.237 265.756 261.028 265.503 260.721 265.339C260.413 265.171 260.022 265.15 259.546 265.278C259.15 265.384 258.818 265.58 258.55 265.865C258.282 266.146 258.088 266.5 257.967 266.927C257.851 267.353 257.817 267.832 257.863 268.363L257.864 268.377C257.912 268.922 258.03 269.369 258.218 269.718C258.406 270.067 258.653 270.31 258.958 270.447C259.262 270.579 259.61 270.592 260.002 270.487C260.451 270.367 260.805 270.168 261.065 269.889C261.329 269.609 261.5 269.254 261.58 268.824L261.59 268.786L262.963 268.412L262.955 268.476C262.913 268.98 262.781 269.448 262.557 269.879C262.334 270.311 262.018 270.688 261.609 271.012C261.204 271.329 260.705 271.567 260.11 271.727ZM264.55 270.391L263.649 260.094L265.082 259.71L265.982 270.007L264.55 270.391ZM269.066 269.181L266.188 266.404L267.17 265.2L270.816 268.712L269.066 269.181ZM265.622 267.504L265.41 265.777L265.72 265.693L268.287 261.821L269.971 261.369L267.031 265.614L266.517 266.233L265.622 267.504ZM271.827 268.441L271.18 261.045L272.62 260.66L273.267 268.055L271.827 268.441ZM271.791 259.53C271.545 259.596 271.325 259.561 271.133 259.427C270.941 259.293 270.834 259.098 270.812 258.844C270.79 258.59 270.859 258.351 271.02 258.126C271.18 257.897 271.383 257.75 271.63 257.684C271.876 257.618 272.095 257.652 272.287 257.787C272.479 257.916 272.586 258.108 272.608 258.363C272.63 258.617 272.561 258.858 272.401 259.087C272.241 259.316 272.038 259.463 271.791 259.53ZM275.038 267.581L274.391 260.185L275.823 259.801L275.921 260.918L276.033 260.888C276.175 260.446 276.408 260.067 276.732 259.753C277.055 259.438 277.479 259.211 278.003 259.071C278.809 258.855 279.446 258.928 279.915 259.29C280.383 259.653 280.656 260.274 280.733 261.155L281.152 265.942L279.713 266.328L279.324 261.888C279.27 261.27 279.105 260.846 278.827 260.613C278.554 260.375 278.154 260.327 277.625 260.468C277.278 260.561 276.983 260.722 276.742 260.949C276.5 261.172 276.321 261.447 276.206 261.776C276.094 262.098 276.056 262.459 276.091 262.859L276.47 267.197L275.038 267.581ZM286.096 267.287C285.489 267.45 284.953 267.505 284.489 267.453C284.029 267.399 283.656 267.253 283.369 267.014C283.082 266.775 282.892 266.459 282.799 266.065L282.805 266.05L284.258 265.661L284.265 265.673C284.349 265.91 284.541 266.073 284.842 266.159C285.142 266.246 285.532 266.225 286.012 266.097C286.602 265.939 287.05 265.677 287.356 265.311C287.666 264.945 287.799 264.512 287.756 264.013L287.629 262.562L287.517 262.592C287.399 262.893 287.238 263.168 287.035 263.418C286.831 263.663 286.592 263.871 286.319 264.042C286.046 264.213 285.744 264.343 285.414 264.431C284.806 264.594 284.265 264.585 283.79 264.406C283.318 264.221 282.938 263.895 282.65 263.429C282.365 262.957 282.193 262.374 282.132 261.679L282.131 261.666C282.069 260.962 282.136 260.307 282.331 259.702C282.525 259.093 282.833 258.576 283.256 258.151C283.678 257.722 284.199 257.424 284.82 257.258C285.154 257.168 285.465 257.141 285.752 257.176C286.043 257.209 286.305 257.297 286.539 257.439C286.772 257.581 286.971 257.771 287.136 258.011L287.222 257.988L287.116 256.775L288.549 256.391L289.183 263.637C289.231 264.196 289.138 264.718 288.901 265.204C288.668 265.689 288.313 266.112 287.836 266.472C287.358 266.833 286.778 267.104 286.096 267.287ZM285.709 263.097C286.114 262.989 286.453 262.798 286.727 262.525C287 262.247 287.198 261.913 287.322 261.522C287.45 261.13 287.493 260.705 287.453 260.246L287.452 260.233C287.412 259.779 287.298 259.396 287.108 259.084C286.923 258.771 286.677 258.554 286.369 258.432C286.061 258.31 285.704 258.304 285.299 258.412C284.894 258.521 284.557 258.713 284.289 258.989C284.025 259.265 283.833 259.599 283.714 259.994C283.595 260.383 283.556 260.807 283.596 261.266L283.597 261.28C283.637 261.738 283.747 262.122 283.928 262.432C284.108 262.741 284.348 262.958 284.647 263.082C284.95 263.201 285.304 263.206 285.709 263.097Z" fill="white"/>
<defs>
<linearGradient id="paint0_linear_5129_6374" x1="62.1475" y1="124.003" x2="248.501" y2="380.918" gradientUnits="userSpaceOnUse">
<stop stop-color="white"/>
<stop offset="1" stop-color="white" stop-opacity="0"/>
</linearGradient>
</defs>
</svg>
